<svg width="193" height="92" viewBox="0 0 193 92" fill="none" xmlns="http://www.w3.org/2000/svg">
<path d="M177.92 0.780029H53.68C45.3626 0.780029 38.62 7.52262 38.62 15.84C38.62 24.1574 45.3626 30.9 53.68 30.9H177.92C186.237 30.9 192.98 24.1574 192.98 15.84C192.98 7.52262 186.237 0.780029 177.92 0.780029Z" fill="white"/>
<path d="M140.27 30.9H16.03C7.71262 30.9 0.969971 37.6426 0.969971 45.96C0.969971 54.2774 7.71262 61.02 16.03 61.02H140.27C148.587 61.02 155.33 54.2774 155.33 45.96C155.33 37.6426 148.587 30.9 140.27 30.9Z" fill="white"/>
<path d="M177.92 61.02H53.68C45.3626 61.02 38.62 67.7626 38.62 76.08C38.62 84.3974 45.3626 91.14 53.68 91.14H177.92C186.237 91.14 192.98 84.3974 192.98 76.08C192.98 67.7626 186.237 61.02 177.92 61.02Z" fill="white"/>
</svg>
