<svg width="898" height="712" viewBox="0 0 898 712" fill="none" xmlns="http://www.w3.org/2000/svg">
<path opacity="0.2" d="M294.562 60.5961C324.192 32.0257 370.685 26.1687 413 28.4434C545.928 35.597 665.917 105.144 769.702 183.812C807.281 212.283 844.273 242.974 868.66 282.193C918.347 362.014 903.583 472.615 834.548 538.371C811.053 560.755 782.58 577.93 753.345 593.105C701.367 620.148 645.281 641.851 586.296 648.048C544.224 652.444 501.635 648.872 459.817 642.73C342.971 625.533 228.276 587.556 132.147 522.646C89.9835 494.141 50.234 458.725 32.8536 412.617C15.4733 366.509 26.5972 308.104 69.6525 280.819C87.4586 269.534 108.753 264.435 129.591 259.655C160.275 252.611 191.446 245.667 219.139 231.348C247.735 216.558 281.593 187.943 275.924 155.208C269.861 120.023 264.983 89.1665 294.562 60.5961Z" fill="#F3C623"/>
<path d="M110.834 629.809C103.849 656.407 79.375 673.029 79.375 673.029C79.375 673.029 66.2247 646.527 73.2092 619.929C80.1937 593.331 104.668 576.71 104.668 576.71C104.668 576.71 117.819 603.211 110.834 629.809Z" fill="#127681"/>
<path d="M100.24 624.183C80.6777 643.51 78.489 673.014 78.489 673.014C78.489 673.014 108.017 671.183 127.58 651.855C147.143 632.528 149.331 603.024 149.331 603.024C149.331 603.024 119.803 604.856 100.24 624.183Z" fill="#F3C623"/>
<path d="M124.772 665.241H48.251C39.8576 665.241 33.0535 672.045 33.0535 680.439V695.54C33.0535 703.933 39.8576 710.737 48.251 710.737H124.772C133.165 710.737 139.969 703.933 139.969 695.54V680.439C139.969 672.045 133.165 665.241 124.772 665.241Z" fill="#F3C623"/>
<path opacity="0.7" d="M860.494 636.178V619.785H778.525V695.606C778.525 697.705 778.939 699.784 779.742 701.723C780.545 703.662 781.723 705.424 783.207 706.908C784.691 708.393 786.453 709.57 788.392 710.373C790.332 711.177 792.41 711.59 794.509 711.59H844.51C848.749 711.59 852.815 709.906 855.813 706.908C858.81 703.911 860.494 699.845 860.494 695.606V678.802C866.139 678.791 871.55 676.541 875.537 672.546C879.525 668.55 881.765 663.135 881.765 657.49C881.765 651.845 879.525 646.431 875.537 642.435C871.55 638.439 866.139 636.189 860.494 636.178V636.178ZM860.494 670.605V644.375C863.973 644.375 867.308 645.757 869.768 648.217C872.227 650.676 873.609 654.012 873.609 657.49C873.609 660.969 872.227 664.304 869.768 666.764C867.308 669.224 863.973 670.605 860.494 670.605V670.605Z" fill="url(#paint0_linear)"/>
<path d="M857.857 638.744C854.008 638.744 850.246 639.886 847.046 642.024C843.846 644.162 841.352 647.201 839.879 650.757C838.407 654.312 838.021 658.225 838.772 661.999C839.523 665.774 841.376 669.241 844.098 671.963C846.819 674.684 850.286 676.537 854.061 677.288C857.835 678.039 861.748 677.653 865.304 676.181C868.859 674.708 871.898 672.214 874.036 669.014C876.174 665.814 877.316 662.052 877.316 658.203C877.316 653.042 875.266 648.093 871.616 644.444C867.967 640.795 863.018 638.744 857.857 638.744ZM857.857 670.178C855.489 670.178 853.173 669.475 851.204 668.16C849.235 666.844 847.7 664.974 846.794 662.786C845.887 660.598 845.65 658.19 846.112 655.867C846.574 653.544 847.715 651.41 849.39 649.736C851.064 648.061 853.198 646.921 855.521 646.459C857.844 645.997 860.251 646.234 862.439 647.14C864.628 648.046 866.498 649.581 867.813 651.55C869.129 653.52 869.832 655.835 869.832 658.203C869.832 661.379 868.57 664.425 866.324 666.67C864.079 668.916 861.033 670.178 857.857 670.178V670.178Z" fill="#F3C623"/>
<path opacity="0.1" d="M857.857 638.744C854.008 638.744 850.246 639.886 847.046 642.024C843.846 644.162 841.352 647.201 839.879 650.757C838.407 654.312 838.021 658.225 838.772 661.999C839.523 665.774 841.376 669.241 844.098 671.963C846.819 674.684 850.286 676.537 854.061 677.288C857.835 678.039 861.748 677.653 865.304 676.181C868.859 674.708 871.898 672.214 874.036 669.014C876.174 665.814 877.316 662.052 877.316 658.203C877.316 653.042 875.266 648.093 871.616 644.444C867.967 640.795 863.018 638.744 857.857 638.744ZM857.857 670.178C855.489 670.178 853.173 669.475 851.204 668.16C849.235 666.844 847.7 664.974 846.794 662.786C845.887 660.598 845.65 658.19 846.112 655.867C846.574 653.544 847.715 651.41 849.39 649.736C851.064 648.061 853.198 646.921 855.521 646.459C857.844 645.997 860.251 646.234 862.439 647.14C864.628 648.046 866.498 649.581 867.813 651.55C869.129 653.52 869.832 655.835 869.832 658.203C869.832 661.379 868.57 664.425 866.324 666.67C864.079 668.916 861.033 670.178 857.857 670.178V670.178Z" fill="#127681"/>
<path d="M783.016 623.776H857.857V697.848C857.857 700.434 856.83 702.914 855.001 704.743C853.173 706.571 850.693 707.598 848.107 707.598H792.766C790.18 707.598 787.7 706.571 785.871 704.743C784.043 702.914 783.016 700.434 783.016 697.848V623.776Z" fill="#F3C623"/>
<path opacity="0.7" d="M603.969 487.265C593.558 449.473 534.532 421.876 490.119 415.757C490.125 415.478 490.14 415.202 490.14 414.921V382.571C490.187 382.554 490.236 382.539 490.283 382.522V381.296C506.045 375.434 520.268 366.065 531.877 353.898C543.486 341.731 552.177 327.084 557.293 311.064C560.038 306.101 562.428 300.95 564.443 295.648C569.184 293.922 572.765 286.104 572.765 276.71C572.783 273.496 572.332 270.297 571.427 267.214C572.009 262.43 572.306 257.615 572.316 252.795C572.335 235.946 568.81 219.282 561.971 203.883C555.132 188.485 545.132 174.696 532.619 163.413C532.991 161.477 533.117 159.503 532.995 157.536C531.99 142.008 515.405 131.46 499.862 130.754C503.968 126.096 506.667 120.369 507.646 114.237C508.625 108.106 507.844 101.822 505.393 96.1175C495.482 110.557 475.135 112.092 457.622 112.205C465.178 109.279 468.579 98.8081 464.184 92C445.88 116.534 410.199 121.077 388.428 142.594C383.685 147.3 379.71 152.722 376.648 158.66C362.5 169.932 351.077 184.25 343.23 200.548C335.384 216.847 331.316 234.706 331.329 252.795C331.339 257.571 331.63 262.342 332.201 267.084C331.268 270.207 330.803 273.451 330.821 276.71C330.821 286.147 334.436 293.989 339.209 295.667C341.233 300.987 343.633 306.155 346.392 311.134C351.49 327.061 360.123 341.629 371.646 353.748C383.169 365.868 397.283 375.225 412.933 381.119V414.921C412.933 415.182 412.948 415.438 412.953 415.697C368.371 421.711 308.874 449.525 298.555 487.621C289.643 520.52 280.131 556.649 275.398 577.862C315.966 606.367 401.091 623.105 454.439 623.105C505.126 623.105 587.972 607.998 627.346 582.042C623.081 558.734 613.268 521.018 603.969 487.265Z" fill="url(#paint1_linear)"/>
<path d="M454.331 613.722C503.227 613.722 583.145 599.148 621.127 574.109C617.013 551.625 607.548 515.242 598.577 482.681C587.153 441.213 515.05 412.465 472.037 412.465H430.588C387.443 412.465 315.235 441.38 303.955 483.025C295.358 514.761 286.182 549.614 281.616 570.077C320.751 597.575 402.868 613.722 454.331 613.722Z" fill="#F3C623"/>
<path d="M451.807 372.733C516.002 372.733 568.042 320.692 568.042 256.497C568.042 192.302 516.002 140.261 451.807 140.261C387.611 140.261 335.571 192.302 335.571 256.497C335.571 320.692 387.611 372.733 451.807 372.733Z" fill="#72351C"/>
<path opacity="0.1" d="M414.292 353.311H488.77V412.894C488.77 422.771 484.847 432.243 477.863 439.226C470.879 446.21 461.407 450.133 451.531 450.133H451.531C441.654 450.133 432.182 446.21 425.199 439.226C418.215 432.243 414.292 422.771 414.292 412.894V353.311H414.292Z" fill="black"/>
<path d="M424.974 350.553H478.087C480.92 350.553 483.638 351.678 485.641 353.682C487.645 355.685 488.77 358.402 488.77 361.236V410.136C488.77 420.012 484.847 429.484 477.863 436.468C470.879 443.452 461.407 447.375 451.531 447.375H451.531C441.654 447.375 432.182 443.452 425.199 436.468C418.215 429.484 414.292 420.012 414.292 410.136V361.236C414.292 358.402 415.417 355.685 417.42 353.682C419.424 351.678 422.141 350.553 424.974 350.553V350.553Z" fill="#FDA57D"/>
<path opacity="0.1" d="M414.429 381.434C438.433 390.402 464.855 390.475 488.908 381.639V372.49H414.429V381.434Z" fill="black"/>
<path d="M451.806 386.421C510.764 386.421 558.559 338.626 558.559 279.668C558.559 220.71 510.764 172.915 451.806 172.915C392.849 172.915 345.054 220.71 345.054 279.668C345.054 338.626 392.849 386.421 451.806 386.421Z" fill="#FDA57D"/>
<path opacity="0.1" d="M375.766 182.565C375.766 182.565 420.756 273.887 547.668 220.84L518.122 174.507L465.746 155.705L375.766 182.565Z" fill="black"/>
<path d="M375.766 181.222C375.766 181.222 420.756 272.545 547.668 219.497L518.122 173.164L465.746 154.362L375.766 181.222Z" fill="#72351C"/>
<path d="M375.367 175.052C378.399 165.661 383.641 157.135 390.652 150.19C411.654 129.433 446.074 125.051 463.731 101.384C467.971 107.951 464.691 118.052 457.401 120.875C474.295 120.765 493.924 119.285 503.484 105.356C505.849 110.859 506.602 116.92 505.658 122.835C504.713 128.75 502.109 134.275 498.148 138.768C513.143 139.449 529.141 149.625 530.11 164.603C530.756 174.582 524.499 184.03 516.299 189.753C508.099 195.475 498.178 198.102 488.413 200.255C459.908 206.54 356.766 232.882 375.367 175.052Z" fill="#72351C"/>
<path d="M558.556 280.602H555.725L500.663 329.621C447.616 304.776 408.669 329.621 408.669 329.621L350.921 282.617L345.098 283.349C345.888 311.366 357.665 337.95 377.887 357.358C398.108 376.767 425.153 387.444 453.179 387.083C481.206 386.723 507.966 375.354 527.682 355.431C547.398 335.509 558.487 308.631 558.556 280.602V280.602ZM451.645 348.423C430.877 348.423 414.041 344.214 414.041 339.022C414.041 333.83 430.877 329.621 451.645 329.621C472.412 329.621 489.248 333.83 489.248 339.022C489.248 344.214 472.412 348.423 451.645 348.423Z" fill="#72351C"/>
<path d="M345.011 298.186C350.496 298.186 354.942 289.85 354.942 279.566C354.942 269.283 350.496 260.947 345.011 260.947C339.527 260.947 335.081 269.283 335.081 279.566C335.081 289.85 339.527 298.186 345.011 298.186Z" fill="#FDA57D"/>
<path d="M558.545 298.186C564.03 298.186 568.476 289.85 568.476 279.566C568.476 269.283 564.03 260.947 558.545 260.947C553.061 260.947 548.615 269.283 548.615 279.566C548.615 289.85 553.061 298.186 558.545 298.186Z" fill="#FDA57D"/>
<path opacity="0.7" d="M642.782 469.704H258.658C250.65 469.704 244.158 476.196 244.158 484.204V693.098C244.158 701.106 250.65 707.598 258.658 707.598H642.782C650.79 707.598 657.282 701.106 657.282 693.098V484.204C657.282 476.196 650.79 469.704 642.782 469.704Z" fill="url(#paint2_linear)"/>
<path opacity="0.1" d="M844.385 623.776V693.004C844.385 696.875 842.848 700.587 840.111 703.324C837.374 706.061 833.662 707.598 829.792 707.598H837.276C841.146 707.598 844.858 706.061 847.595 703.324C850.332 700.587 851.87 696.875 851.87 693.004V623.776H844.385Z" fill="#127681"/>
<path d="M797.785 567.979C796.522 568.195 795.098 568.536 794.48 569.657C793.498 571.437 795.277 573.444 796.9 574.667C799.9 576.926 803.061 579.145 805.099 582.298C807.138 585.452 807.779 589.852 805.55 592.874C802.64 596.82 795.698 597.669 795.026 602.526C794.594 605.644 797.29 608.304 800.021 609.869C806.763 613.731 815.453 614.761 820.336 620.804C822.356 616.65 826.875 614.249 831.378 613.223C835.882 612.198 840.561 612.275 845.127 611.579C846.601 611.354 848.262 610.904 848.921 609.567C850.197 606.976 846.56 603.869 847.815 601.269C848.771 599.289 851.578 599.443 853.628 598.65C856.966 597.36 858.343 593.064 857.395 589.612C856.448 586.161 853.772 583.464 850.958 581.253C843.374 575.293 834.254 571.788 825.03 569.268C820.741 568.095 815.705 566.256 811.249 566.079C806.948 565.907 802.042 567.251 797.785 567.979Z" fill="#EEEEEE"/>
<path d="M94.5802 211.574C138.399 211.574 173.921 176.053 173.921 132.234C173.921 88.4155 138.399 52.8936 94.5802 52.8936C50.7617 52.8936 15.2397 88.4155 15.2397 132.234C15.2397 176.053 50.7617 211.574 94.5802 211.574Z" fill="#F3C623"/>
<path d="M122.229 37.9512C115.045 37.0376 107.775 37.0376 100.591 37.9512C84.5863 40.0526 69.5206 46.7011 57.1812 57.1078C44.8419 67.5145 35.747 81.2425 30.9756 96.6631C28.8056 103.691 27.5767 110.975 27.3211 118.325C27.2851 119.347 27.261 120.381 27.261 121.415C27.2833 143.726 36.1561 165.116 51.9323 180.893C67.7084 196.669 89.0991 205.542 111.41 205.564C113.201 205.564 114.992 205.504 116.759 205.396C120.908 205.135 125.03 204.565 129.093 203.689C148.495 199.516 165.798 188.622 177.947 172.93C190.096 157.237 196.308 137.756 195.487 117.928C194.666 98.0996 186.864 79.1992 173.459 64.5652C160.054 49.9311 141.909 40.5048 122.229 37.9512H122.229ZM137.748 198.808H137.736C130.959 201.12 123.905 202.523 116.759 202.979C114.992 203.099 113.201 203.16 111.41 203.16C89.738 203.133 68.9613 194.512 53.6369 179.188C38.3126 163.863 29.6917 143.087 29.6652 121.415C29.6652 120.381 29.6892 119.347 29.7253 118.325C30.5517 97.205 39.5159 77.2229 54.7414 62.5621C69.9669 47.9013 90.2733 39.6983 111.41 39.6702C130.776 39.6713 149.513 46.5477 164.283 59.0744C179.052 71.6011 188.895 88.9644 192.057 108.071C195.22 127.177 191.496 146.786 181.55 163.403C171.604 180.021 156.082 192.567 137.748 198.808H137.748Z" fill="#127681"/>
<path d="M112.612 44.4787H110.208V61.3085H112.612V44.4787Z" fill="#3F3D56"/>
<path d="M57.8578 66.1628L56.1577 67.8629L68.0582 79.7633L69.7582 78.0632L57.8578 66.1628Z" fill="#3F3D56"/>
<path d="M34.4736 120.213V122.617H51.3034V120.213H34.4736Z" fill="#3F3D56"/>
<path d="M56.1578 174.967L57.8579 176.667L69.7584 164.767L68.0583 163.066L56.1578 174.967Z" fill="#3F3D56"/>
<path d="M153.061 78.0632L154.761 79.7633L166.662 67.8628L164.962 66.1628L153.061 78.0632Z" fill="#3F3D56"/>
<path d="M171.516 120.213V122.617H188.346V120.213H171.516Z" fill="#3F3D56"/>
<path d="M154.762 163.067L153.062 164.767L164.962 176.667L166.662 174.967L154.762 163.067Z" fill="#3F3D56"/>
<path d="M112.612 181.521H110.208V198.351H112.612V181.521Z" fill="#3F3D56"/>
<path d="M115.016 116.606C113.976 115.826 112.71 115.404 111.41 115.404C110.109 115.404 108.844 115.826 107.803 116.606C107.091 117.147 106.505 117.836 106.084 118.626C105.552 119.643 105.322 120.791 105.421 121.934C105.52 123.077 105.944 124.169 106.643 125.078C107.343 125.988 108.288 126.679 109.368 127.069C110.447 127.459 111.616 127.531 112.735 127.278C113.855 127.025 114.878 126.457 115.685 125.641C116.492 124.824 117.048 123.794 117.288 122.672C117.528 121.549 117.441 120.382 117.039 119.307C116.636 118.232 115.934 117.295 115.016 116.606H115.016ZM111.41 125.021C110.454 125.018 109.539 124.638 108.863 123.962C108.187 123.286 107.806 122.371 107.803 121.415C107.808 120.686 108.03 119.974 108.441 119.371C108.793 118.861 109.271 118.451 109.828 118.179C110.385 117.908 111.003 117.785 111.622 117.822C112.241 117.859 112.84 118.056 113.361 118.392C113.881 118.729 114.306 119.194 114.595 119.742C114.883 120.291 115.025 120.905 115.007 121.525C114.988 122.144 114.811 122.749 114.49 123.28C114.17 123.81 113.718 124.25 113.179 124.555C112.639 124.86 112.03 125.021 111.41 125.021V125.021Z" fill="#3F3D56"/>
<path d="M122.229 16.8298H100.591V38.4681H122.229V16.8298Z" fill="#127681"/>
<path d="M111.41 20.4362C127.344 20.4362 140.261 15.8614 140.261 10.2181C140.261 4.57479 127.344 0 111.41 0C95.4759 0 82.5588 4.57479 82.5588 10.2181C82.5588 15.8614 95.4759 20.4362 111.41 20.4362Z" fill="#127681"/>
<path d="M115.016 75.734H107.803V116.606H115.016V75.734Z" fill="#127681"/>
<path d="M226 201.901H0V204.306H226V201.901Z" fill="#127681"/>
<path d="M622.963 474.093H278.477C263.657 474.093 251.642 486.108 251.642 500.928V680.763C251.642 695.584 263.657 707.598 278.477 707.598H622.963C637.784 707.598 649.798 695.584 649.798 680.763V500.928C649.798 486.108 637.784 474.093 622.963 474.093Z" fill="#127681"/>
<path d="M450.72 604.317C458.16 604.317 464.192 598.286 464.192 590.846C464.192 583.406 458.16 577.375 450.72 577.375C443.28 577.375 437.249 583.406 437.249 590.846C437.249 598.286 443.28 604.317 450.72 604.317Z" fill="white"/>
<defs>
<linearGradient id="paint0_linear" x1="830.166" y1="711.59" x2="830.166" y2="619.785" gradientUnits="userSpaceOnUse">
<stop stop-color="#808080" stop-opacity="0.25"/>
<stop offset="0.53514" stop-color="#808080" stop-opacity="0.12"/>
<stop offset="1" stop-color="#808080" stop-opacity="0.1"/>
</linearGradient>
<linearGradient id="paint1_linear" x1="211673" y1="345366" x2="211673" y2="63293.5" gradientUnits="userSpaceOnUse">
<stop stop-color="#808080" stop-opacity="0.25"/>
<stop offset="0.53514" stop-color="#808080" stop-opacity="0.12"/>
<stop offset="1" stop-color="#808080" stop-opacity="0.1"/>
</linearGradient>
<linearGradient id="paint2_linear" x1="200907" y1="146917" x2="200907" y2="90323.3" gradientUnits="userSpaceOnUse">
<stop stop-color="#808080" stop-opacity="0.25"/>
<stop offset="0.53514" stop-color="#808080" stop-opacity="0.12"/>
<stop offset="1" stop-color="#808080" stop-opacity="0.1"/>
</linearGradient>
</defs>
</svg>
